<?xml version="1.0" encoding="UTF-8" standalone="no"?>
<svg
   xmlns:dc="http://purl.org/dc/elements/1.1/"
   xmlns:cc="http://creativecommons.org/ns#"
   xmlns:rdf="http://www.w3.org/1999/02/22-rdf-syntax-ns#"
   xmlns:svg="http://www.w3.org/2000/svg"
   xmlns="http://www.w3.org/2000/svg"
   xmlns:sodipodi="http://sodipodi.sourceforge.net/DTD/sodipodi-0.dtd"
   xmlns:inkscape="http://www.inkscape.org/namespaces/inkscape"
   version="1.1"
   id="svg2"
   xml:space="preserve"
   width="258.66666"
   height="258.66666"
   viewBox="0 0 258.66666 258.66666"
   sodipodi:docname="mac_logo_FINAL.svg"
   inkscape:version="1.0.1 (c497b03c, 2020-09-10)"><metadata
     id="metadata8"><rdf:RDF><cc:Work
         rdf:about=""><dc:format>image/svg+xml</dc:format><dc:type
           rdf:resource="http://purl.org/dc/dcmitype/StillImage" /><dc:title></dc:title></cc:Work></rdf:RDF></metadata><defs
     id="defs6" /><sodipodi:namedview
     pagecolor="#ffffff"
     bordercolor="#666666"
     borderopacity="1"
     objecttolerance="10"
     gridtolerance="10"
     guidetolerance="10"
     inkscape:pageopacity="0"
     inkscape:pageshadow="2"
     inkscape:window-width="1440"
     inkscape:window-height="900"
     id="namedview4"
     inkscape:document-rotation="0"
     showgrid="false"
     inkscape:zoom="2.6752578"
     inkscape:cx="129.33333"
     inkscape:cy="129.33333"
     inkscape:window-x="1360"
     inkscape:window-y="66"
     inkscape:window-maximized="0"
     inkscape:current-layer="g12"
     inkscape:pagecheckerboard="true" /><g
     id="g10"
     inkscape:groupmode="layer"
     inkscape:label="ink_ext_XXXXXX"
     transform="matrix(1.3333333,0,0,-1.3333333,0,258.66667)"><g
       id="g12"
       transform="scale(0.1)"><path
         d="m 1571.72,506.57 c -123.04,38.571 -197.72,162.223 -204.46,236.907 0,1.214 0,1.214 0,292.003 v 20.81 h 421.17 V 745.309 c -6.12,-75.293 -80.8,-200.168 -203.85,-238.739 l -6.12,-1.23 -6.74,1.23"
         style="fill:#ffffff;fill-opacity:1;fill-rule:evenodd;stroke:none"
         id="path16" /><path
         d="m 1776.18,1045.89 h -398.51 v -10.41 c 0,-192.832 0,-290.789 0,-290.789 6.74,-72.226 78.35,-190.98 197.1,-227.718 l 1.85,-0.598 h 0.6 l 0.62,-0.625 0.62,0.625 h 0.61 l 1.83,0.598 c 118.76,36.738 191,156.105 197.12,228.336 v 300.581 h -1.84"
         style="fill:#99a2a7;fill-opacity:1;fill-rule:evenodd;stroke:none"
         id="path18" /><path
         d="m 1579.07,1004.87 h 66.11 v -63.05 h -54.48 c 0,0 -4.28,9.176 -12.24,9.176 -7.34,0 -11.64,-9.176 -11.64,-9.176 h -54.47 v 63.05 h 66.72"
         style="fill:#7e1540;fill-opacity:1;fill-rule:evenodd;stroke:none"
         id="path20" /><path
         d="m 1577.22,927.125 h 190.39 V 745.309 c -5.5,-62.43 -70.4,-181.805 -189.77,-218.524 -118.76,36.719 -184.26,156.094 -189.77,218.524 v 181.816 h 190.39 -1.24"
         style="fill:#f9c64d;fill-opacity:1;fill-rule:evenodd;stroke:none"
         id="path22" /><path
         d="m 1451.13,943.652 h 4.89 c -1.83,1.227 -4.28,2.45 -4.28,7.344 -0.61,6.738 1.22,11.629 1.22,11.629 l 16.52,-1.211 -3.66,5.492 17.76,15.926 -4.9,1.84 3.05,11.625 -11.01,-2.445 -1.84,5.503 -7.34,-8.57 1.84,20.195 -6.14,-5.51 -7.34,14.09 -6.72,-14.09 -6.13,5.51 1.83,-20.195 -7.34,8.57 -2.45,-5.503 -10.41,2.445 3.07,-11.625 -4.9,-1.84 17.13,-15.926 -3.04,-5.492 16.51,1.211 c 0,0 1.84,-4.891 1.23,-11.629 0,-4.894 -3.06,-6.117 -4.29,-7.344 h 6.74"
         style="fill:#f9c64d;fill-opacity:1;fill-rule:evenodd;stroke:none"
         id="path24" /><path
         d="m 1703.95,943.652 h -4.9 c 1.84,1.227 4.29,2.45 4.29,7.344 0.61,6.738 -1.22,11.629 -1.22,11.629 l -16.54,-1.211 3.08,5.492 -17.16,15.926 4.9,1.84 -3.06,11.625 11.02,-2.445 1.84,5.503 7.34,-8.57 -1.83,20.195 6.11,-5.51 6.75,14.09 7.34,-14.09 6.12,5.51 -1.83,-20.195 7.33,8.57 1.85,-5.503 11.02,2.445 -3.07,-11.625 4.9,-1.84 -17.14,-15.926 3.06,-5.492 -16.52,1.211 c 0,0 -1.83,-4.891 -1.22,-11.629 0,-4.894 2.43,-6.117 4.27,-7.344 h -6.73"
         style="fill:#f9c64d;fill-opacity:1;fill-rule:evenodd;stroke:none"
         id="path26" /><path
         d="m 1579.07,957.113 c 7.35,7.965 28.16,-4.281 34.9,-4.883 3.67,-0.617 20.19,-0.617 20.19,-0.617 v 63.047 h -7.96 c 0,0 -12.23,-0.61 -18.36,1.84 -6.11,2.45 -21.42,7.96 -28.77,-3.06 -7.95,11.02 -23.27,5.51 -29.39,3.06 -6.12,-2.45 -18.36,-1.84 -18.36,-1.84 h -7.96 v -63.047 c 0,0 16.52,0 20.2,0.617 6.74,0.602 27.56,12.848 35.51,4.883"
         style="fill:#f9c64d;fill-opacity:1;fill-rule:evenodd;stroke:none"
         id="path28" /><path
         d="m 1576.62,958.957 c 0.6,-0.617 1.22,-1.223 2.45,-1.844 0,0.621 1.23,1.227 1.83,1.844 v 56.923 c -0.6,-0.6 -1.83,-1.22 -1.83,-2.44 -0.61,1.22 -1.85,1.84 -2.45,2.44 v -56.923"
         style="fill:#7e1540;fill-opacity:1;fill-rule:evenodd;stroke:none"
         id="path30" /><path
         d="m 1552.14,849.383 c 0,0 18.98,-1.215 20.81,15.305 0,0 1.22,-12.86 5.51,-12.86 4.27,0 4.27,12.86 4.27,12.86 6.75,-17.754 23.28,-18.364 23.28,-18.364 -14.08,9.176 -13.47,35.504 -13.47,37.344 1.22,12.844 12.25,11.625 12.85,18.969 1.22,11.015 -11.63,8.566 -11.63,8.566 0,0 5.51,0 6.73,-2.445 2.46,-6.121 -7.95,-6.738 -7.95,-6.738 -12.85,-3.668 -17.16,4.285 -22.04,4.906 -4.28,0.613 -5.51,-2.457 -6.12,-3.063 -1.23,-1.226 -20.82,-2.453 -25.1,-6.734 -4.29,-4.899 -3.67,-11.02 -0.61,-14.688 0,0 1.83,7.348 9.19,7.348 7.34,0 19.58,-9.199 22.64,-14.703 -3.06,-0.613 -31.22,-2.445 -34.89,0.605 -2.46,1.844 -4.9,4.899 -4.9,7.36 0,0 -1.84,-7.36 1.82,-9.797 3.69,-1.84 4.3,-1.84 6.75,-1.84 1.83,0 28.77,0.609 31.84,0.609 -0.62,-1.824 0,-7.335 -6.13,-7.335 h -22.65 c 0,0 -0.62,-6.129 8.57,-3.676 1.84,0.609 7.35,2.449 9.18,-0.614 1.22,-2.445 5.51,-9.171 -7.95,-11.015"
         style="fill:#7e1540;fill-opacity:1;fill-rule:evenodd;stroke:none"
         id="path32" /><path
         d="m 1566.82,654.105 c -7.96,-4.898 -21.42,-0.621 -21.42,-0.621 0,0 0,-3.679 -12.25,-8.57 -17.74,-7.957 -36.72,-26.926 -12.24,-55.101 0,0 -10.39,31.843 6.13,39.191 0,0 13.46,-13.469 33.66,13.465 4.29,5.508 6.12,11.636 6.12,11.636"
         style="fill:#7e1540;fill-opacity:1;fill-rule:evenodd;stroke:none"
         id="path34" /><path
         d="m 1521.53,766.73 c -0.62,-8.566 -1.84,-8.566 -9.18,-12.851 0,0 -3.07,3.07 -4.3,6.125 -4.89,8.57 3.06,22.039 3.06,22.039 -8.57,-10.41 -20.81,-6.73 -20.81,-6.73 0.61,8.562 12.86,17.132 12.86,17.132 -11.02,-2.445 -20.2,3.672 -20.2,3.672 3.06,6.117 14.7,13.465 14.7,13.465 -11.03,0.613 -18.98,7.957 -18.98,7.957 3.66,4.285 15.91,11.024 15.91,11.024 -6.13,3.679 -11.63,14.085 -11.63,14.085 8.58,4.286 18.36,3.676 18.36,3.676 -15.91,11.629 1.22,42.852 1.22,42.852 -2.45,-47.754 34.29,-34.899 31.84,-59.383 -2.44,-20.211 -24.48,-5.516 -24.48,-5.516 -3.67,-28.16 12.24,-30.597 12.24,-30.597 0,0 -0.61,-6.739 -1.23,-14.094 0,-8.566 1.23,-9.176 0.62,-12.856"
         style="fill:#7e1540;fill-opacity:1;fill-rule:evenodd;stroke:none"
         id="path36" /><path
         d="m 1473.16,696.945 c 50.81,1.231 59.99,39.789 59.99,39.789 -4.9,6.743 -6.11,11.028 -6.11,11.028 l -0.62,1.832 c -3.67,-3.676 -16.52,-8.574 -16.52,-8.574 0,0 -7.36,6.742 -9.19,9.187 -4.89,7.352 -5.51,12.246 -5.51,12.246 -8.57,0 -16.52,7.336 -16.52,7.336 -0.62,7.961 3.05,14.699 3.05,14.699 -6.11,2.453 -12.85,9.192 -12.85,9.192 4.28,8.554 6.74,11.011 6.74,11.011 -9.8,7.961 -9.8,12.848 -9.8,12.848 2.44,6.117 11.02,12.863 11.02,12.863 -3.68,4.899 -7.36,15.305 -7.36,15.305 7.36,6.727 14.1,9.184 14.1,9.184 -1.24,3.668 -1.24,7.961 -0.62,11.629 0,0 -58.16,30.609 -64.89,50.195 0,0 -2.44,-17.137 -1.84,-28.766 1.23,-9.797 16.54,-26.328 54.49,-51.429 -23.27,3.675 -55.09,15.914 -61.83,28.168 0,0 0,-17.754 4.29,-28.168 3.05,-8.571 18.98,-14.696 56.3,-33.047 -18.35,-9.793 -50.8,1.218 -59.97,10.402 0,0 5.51,-15.91 11.01,-25.102 4.28,-6.117 19.58,-16.523 55.1,-11.023 -13.48,-16.531 -38.57,-28.762 -55.71,-20.801 0,0 1.84,-15.929 12.25,-20.215 7.33,-3.664 23.86,-5.496 49.57,14.704 -15.91,-39.184 -53.87,-26.942 -53.87,-26.942 0,0 9.19,-15.297 18.99,-20.808 9.17,-4.907 27.54,-1.227 56.93,31.203 0,0 -1.84,-28.75 -30.62,-37.946"
         style="fill:#7e1540;fill-opacity:1;fill-rule:evenodd;stroke:none"
         id="path38" /><path
         d="m 1538.67,726.336 c 0,0 9.79,-14.082 12.86,-23.25 0,0 -19.59,-17.148 -15.92,-36.129 0,0 -6.74,13.461 -2.46,23.871 0.61,1.227 2.46,6.738 2.46,6.738 0,0 -17.14,-7.957 -28.16,-1.839 0,0 12.24,-1.84 25.7,19.586 6.73,11.625 5.52,11.023 5.52,11.023"
         style="fill:#7e1540;fill-opacity:1;fill-rule:evenodd;stroke:none"
         id="path40" /><path
         d="m 1472.55,668.188 c -2.44,0 -11.01,3.054 -13.47,-3.688 -2.43,-7.332 6.74,-11.016 11.64,-6.719 6.12,4.887 14.69,4.887 16.53,1.828 1.21,-1.828 2.45,-5.504 -5.52,-11.031 -2.45,-1.824 -15.29,-9.781 -6.11,-18.351 3.06,-3.063 11.01,-1.836 13.46,9.793 1.22,8.558 4.28,12.855 7.35,14.691 1.83,0.613 6.73,1.836 9.8,0 0.61,-0.606 2.44,-2.457 2.44,-2.457 4.89,-3.047 10.41,0.621 9.19,6.129 -1.23,5.508 -6.13,4.285 -9.19,2.445 -2.44,-1.219 -5.51,0 -5.51,0 -2.45,1.231 -3.07,3.672 0.62,5.508 15.3,7.359 18.36,15.918 18.36,15.918 -7.35,-1.215 -13.47,1.234 -13.47,1.234 0,0 -14.08,-18.988 -24.48,-14.093 -3.68,1.847 -4.91,7.351 -4.91,10.414 0,5.511 -6.12,7.957 -9.8,4.285 -3.04,-3.676 0.63,-7.957 3.68,-9.184 2.46,-0.617 5.52,-3.058 4.29,-4.894 -1.22,-2.446 -3.06,-1.223 -4.9,-1.828"
         style="fill:#7e1540;fill-opacity:1;fill-rule:evenodd;stroke:none"
         id="path42" /><path
         d="m 1467.04,688.992 c 0,0 -2.45,-1.226 -3.06,-4.285 0,0 -5.51,4.285 -9.18,-1.828 0,0 1.22,9.773 12.24,6.113"
         style="fill:#7e1540;fill-opacity:1;fill-rule:evenodd;stroke:none"
         id="path44" /><path
         d="m 1453.57,662.668 c 0,0 -1.22,-2.438 1.23,-6.727 0,0 -6.74,-2.457 -1.84,-11.64 0,0 -10.41,9.804 0.61,18.367"
         style="fill:#7e1540;fill-opacity:1;fill-rule:evenodd;stroke:none"
         id="path46" /><path
         d="m 1468.26,632.07 c 0,0 -0.6,-3.066 3.06,-6.129 0,0 -5.5,-4.902 1.84,-11.636 0,0 -12.85,5.511 -4.9,17.765"
         style="fill:#7e1540;fill-opacity:1;fill-rule:evenodd;stroke:none"
         id="path48" /><path
         d="m 1522.75,652.875 c 1.84,-0.621 3.06,-2.445 2.45,-7.961 0,0 6.74,7.34 -2.45,12.867 0,0 -0.61,0 -1.22,0.602 0,0 1.22,-3.059 0,-4.899 0,0 0.61,-0.609 1.22,-0.609"
         style="fill:#7e1540;fill-opacity:1;fill-rule:evenodd;stroke:none"
         id="path50" /><path
         d="m 1632.94,653.484 c -1.83,-1.23 -3.68,-3.054 -2.45,-7.957 0,0 -7.33,7.348 2.45,12.856 h 0.61 c 0,0 -0.61,-2.442 0.61,-4.899 0,0 -0.61,0 -1.22,0"
         style="fill:#7e1540;fill-opacity:1;fill-rule:evenodd;stroke:none"
         id="path52" /><path
         d="m 1578.46,837.133 c 4.9,1.836 6.74,5.515 6.74,5.515 3.67,-4.293 13.46,-6.738 18.35,-7.347 11.64,-30.61 36.73,-48.973 13.47,-90.61 -24.48,-42.839 -42.25,-48.964 -7.95,-78.355 0,0 -22.04,-6.106 -26.94,12.859 0,0 1.23,-20.812 -3.67,-26.32 -5.51,5.508 -4.29,25.711 -4.29,25.711 -4.9,-18.356 -26.93,-12.25 -26.93,-12.25 34.28,29.391 16.53,35.516 -7.96,78.355 -23.27,41.637 2.44,60 14.07,90.61 4.91,0.609 14.09,2.449 18.37,6.726 0,0 1.85,-3.058 6.74,-4.894"
         style="fill:#7e1540;fill-opacity:1;fill-rule:evenodd;stroke:none"
         id="path54" /><path
         d="m 1590.09,654.105 c 7.95,-4.898 21.42,-0.621 21.42,-0.621 0,0 -0.61,-3.679 11.65,-8.57 17.73,-7.957 37.33,-26.926 12.22,-55.101 0,0 10.42,31.843 -5.51,39.191 0,0 -14.07,-13.469 -34.27,13.465 -3.67,5.508 -5.51,11.636 -5.51,11.636"
         style="fill:#7e1540;fill-opacity:1;fill-rule:evenodd;stroke:none"
         id="path56" /><path
         d="m 1634.78,766.73 c 0.6,-8.566 1.83,-8.566 9.79,-12.851 0,0 2.45,3.07 4.29,6.125 4.28,8.57 -3.06,22.039 -3.06,22.039 8.56,-10.41 20.8,-6.73 20.8,-6.73 -1.21,8.562 -12.84,17.132 -12.84,17.132 11.02,-2.445 19.58,3.672 19.58,3.672 -3.06,6.117 -14.69,13.465 -14.69,13.465 11.02,0.613 18.98,7.957 18.98,7.957 -3.07,4.285 -15.92,11.024 -15.92,11.024 6.12,3.679 12.25,14.085 12.25,14.085 -8.57,4.286 -18.98,3.676 -18.98,3.676 15.91,11.629 -1.22,42.852 -1.22,42.852 2.45,-47.754 -34.29,-34.899 -31.23,-59.383 1.84,-20.211 23.88,-5.516 23.88,-5.516 3.67,-28.16 -12.25,-30.597 -12.25,-30.597 0,0 0.62,-6.739 1.22,-14.094 0,-8.566 -0.6,-9.176 -0.6,-12.856"
         style="fill:#7e1540;fill-opacity:1;fill-rule:evenodd;stroke:none"
         id="path58" /><path
         d="m 1683.74,696.945 c -50.8,1.231 -59.99,39.789 -59.99,39.789 4.9,6.743 5.51,11.028 5.51,11.028 l 0.61,1.832 c 3.68,-3.676 16.54,-8.574 16.54,-8.574 0,0 7.35,6.742 9.18,9.187 4.9,7.352 5.51,12.246 5.51,12.246 8.57,0 16.53,7.336 16.53,7.336 0.61,7.961 -2.45,14.699 -2.45,14.699 6.12,2.453 12.25,9.192 12.25,9.192 -4.29,8.554 -6.76,11.011 -6.76,11.011 9.81,7.961 10.43,12.848 10.43,12.848 -2.44,6.117 -11.64,12.863 -11.64,12.863 3.68,4.899 7.36,15.305 7.36,15.305 -6.75,6.727 -13.48,9.184 -13.48,9.184 0.62,3.668 0.62,7.961 0,11.629 0,0 58.77,30.609 64.89,50.195 0,0 3.07,-17.137 1.83,-28.766 -1.22,-9.797 -16.53,-26.328 -53.86,-51.429 22.64,3.675 54.47,15.914 61.21,28.168 0,0 0,-17.754 -3.67,-28.168 -3.07,-8.571 -19.59,-14.696 -56.31,-33.047 17.75,-9.793 50.18,1.218 59.37,10.402 0,0 -4.89,-15.91 -11.01,-25.102 -3.68,-6.117 -18.98,-16.523 -54.49,-11.023 12.85,-16.531 38.56,-28.762 55.72,-20.801 0,0 -1.85,-15.929 -12.25,-20.215 -7.96,-3.664 -23.88,-5.496 -50.21,14.704 15.92,-39.184 53.88,-26.942 53.88,-26.942 0,0 -9.19,-15.297 -18.99,-20.808 -9.18,-4.907 -27.55,-1.227 -56.92,31.203 0,0 1.83,-28.75 31.21,-37.946"
         style="fill:#7e1540;fill-opacity:1;fill-rule:evenodd;stroke:none"
         id="path60" /><path
         d="m 1618.25,726.336 c 0,0 -10.41,-14.082 -13.46,-23.25 0,0 20.18,-17.148 16.53,-36.129 0,0 6.72,13.461 1.84,23.871 -0.63,1.227 -2.46,6.738 -2.46,6.738 0,0 17.14,-7.957 28.16,-1.839 0,0 -11.64,-1.84 -25.11,19.586 -7.34,11.625 -5.5,11.023 -5.5,11.023"
         style="fill:#7e1540;fill-opacity:1;fill-rule:evenodd;stroke:none"
         id="path62" /><path
         d="m 1683.74,668.188 c 2.46,0 11.64,3.054 13.47,-3.688 3.06,-7.332 -6.11,-11.016 -11.63,-6.719 -5.51,4.887 -14.08,4.887 -16.53,1.828 -0.6,-1.828 -1.83,-5.504 5.51,-11.031 2.46,-1.824 15.32,-9.781 6.74,-18.351 -3.06,-3.063 -11.63,-1.836 -14.08,9.793 -1.23,8.558 -4.27,12.855 -7.35,14.691 -1.22,0.613 -6.73,1.836 -9.79,0 -0.62,-0.606 -2.45,-2.457 -2.45,-2.457 -4.29,-3.047 -10.41,0.621 -9.18,6.129 1.23,5.508 6.12,4.285 9.18,2.445 2.45,-1.219 5.51,0 5.51,0 2.45,1.231 3.07,3.672 -0.61,5.508 -15.31,7.359 -18.37,15.918 -18.37,15.918 7.35,-1.215 13.47,1.234 13.47,1.234 0,0 14.08,-18.988 24.48,-14.093 3.68,1.847 4.91,7.351 4.91,10.414 0,5.511 6.72,7.957 9.8,4.285 3.06,-3.676 -0.62,-7.957 -3.68,-9.184 -1.84,-0.617 -4.9,-3.058 -3.68,-4.894 1.21,-2.446 3.07,-1.223 4.28,-1.828"
         style="fill:#7e1540;fill-opacity:1;fill-rule:evenodd;stroke:none"
         id="path64" /><path
         d="m 1689.25,688.992 c 0,0 3.06,-1.226 3.06,-4.285 0,0 5.51,4.285 9.19,-1.828 0,0 -0.61,9.773 -12.25,6.113"
         style="fill:#7e1540;fill-opacity:1;fill-rule:evenodd;stroke:none"
         id="path66" /><path
         d="m 1702.73,662.668 c 0,0 1.22,-2.438 -1.23,-6.727 0,0 6.74,-2.457 2.45,-11.64 0,0 9.79,9.804 -1.22,18.367"
         style="fill:#7e1540;fill-opacity:1;fill-rule:evenodd;stroke:none"
         id="path68" /><path
         d="m 1688.66,632.07 c 0,0 0,-3.066 -3.68,-6.129 0,0 5.5,-4.902 -1.84,-11.636 0,0 12.86,5.511 5.52,17.765"
         style="fill:#7e1540;fill-opacity:1;fill-rule:evenodd;stroke:none"
         id="path70" /><path
         d="m 1578.46,638.176 c 1.23,0.621 3.06,1.234 4.9,3.066 0,0 12.85,-30.609 42.23,-27.547 0,0 -1.84,-6.738 -13.46,-7.34 0,0 20.2,-9.187 8.57,-18.363 -7.34,-6.129 -13.47,11.024 -13.47,11.024 0,0 -0.62,-15.922 -14.08,-15.922 0,0 20.21,11.636 -1.22,39.176 2.44,-18.981 -4.9,-37.344 -13.47,-37.344 -9.19,0 -15.92,18.363 -14.08,37.344 -20.82,-27.54 -0.61,-39.176 -0.61,-39.176 -13.47,0 -14.69,15.922 -14.69,15.922 0,0 -6.12,-17.153 -13.47,-11.024 -11.64,9.176 8.56,18.363 8.56,18.363 -11.64,0.602 -13.46,7.34 -13.46,7.34 29.38,-3.062 42.86,27.547 42.86,27.547 1.81,-1.832 3.05,-2.445 4.89,-3.066"
         style="fill:#7e1540;fill-opacity:1;fill-rule:evenodd;stroke:none"
         id="path72" /><path
         d="m 1575.38,894.684 -1.21,5.504 -0.6,-0.61 -15.91,-6.129 8.56,0.617 c -0.62,-0.617 -0.62,-1.23 -0.62,-1.836 0,-1.835 1.22,-3.671 3.67,-3.671 1.85,0 3.05,1.836 3.05,3.671 0,0.606 0,1.219 -0.6,1.836 l 3.05,0.618 h 0.61"
         style="fill:#f9c64d;fill-opacity:1;fill-rule:evenodd;stroke:none"
         id="path74" /><path
         d="m 1618.86,783.875 c -3.06,5.512 -6.12,7.344 -8.57,8.57 -0.61,0.614 -1.22,1.235 -1.22,2.457 -3.68,4.895 -9.8,5.493 -14.08,4.274 -1.84,-0.598 -2.45,-1.211 -3.06,-1.828 l 0.61,1.23 c 0,0.598 0,0.598 0.61,0.598 0.61,0.621 1.22,1.847 1.84,4.297 1.83,4.273 1.22,10.402 -4.29,14.066 -0.61,0 -1.22,0.621 -2.45,1.223 -0.61,2.457 -2.45,5.515 -7.95,8.578 l -1.84,0.609 -1.24,-0.609 c -5.5,-3.063 -7.33,-6.121 -7.95,-8.578 -1.22,-0.602 -1.83,-1.223 -2.45,-1.223 -5.51,-3.664 -6.12,-9.793 -4.28,-14.066 0.61,-2.45 1.23,-3.676 1.84,-4.297 0,0 0,0 0.61,-0.598 l 0.61,-1.23 c -0.61,0.617 -1.83,1.23 -3.06,1.828 -4.28,1.219 -10.4,0.621 -14.08,-4.274 -0.6,-1.222 -1.22,-1.843 -1.22,-2.457 -3.07,-1.226 -6.13,-3.058 -8.57,-8.57 l -1.23,-1.219 1.23,-1.84 c 2.44,-5.503 5.5,-6.73 8.57,-7.949 0,-0.617 0.62,-1.847 1.22,-2.457 3.68,-4.898 9.8,-6.109 14.08,-4.285 2.45,1.219 3.06,1.832 4.28,2.449 v 0 c 0,0 1.23,0.614 1.84,1.215 v -14.066 l -1.84,1.226 -1.83,-3.07 c -0.61,0 -0.61,0 -0.61,0 -0.61,-1.219 -1.23,-1.824 -1.84,-4.285 -1.84,-4.285 -1.23,-10.403 4.28,-14.078 0.62,-0.625 1.23,-0.625 2.45,-1.219 0.62,-3.059 2.45,-6.129 7.95,-8.567 l 1.24,-0.625 1.84,0.625 c 5.5,2.438 7.34,5.508 7.95,8.567 1.23,0.594 1.84,0.594 2.45,1.219 5.51,3.675 6.12,9.793 4.29,14.078 -0.62,2.461 -1.23,3.066 -1.84,4.285 -0.61,0 -0.61,0 -0.61,0 l -1.84,3.07 -1.83,-1.226 v 14.066 l 1.83,-1.215 v 0 c 0.61,-0.617 1.84,-1.23 4.29,-2.449 4.28,-1.824 10.4,-0.613 14.08,4.285 0,0.61 0.61,1.84 1.22,2.457 2.45,1.219 5.51,2.446 8.57,7.949 l 0.61,1.84 -0.61,1.219"
         style="fill:#f9c64d;fill-opacity:1;fill-rule:evenodd;stroke:none"
         id="path76" /><path
         d="m 1610.29,782.656 c 0,0.614 -3.06,4.285 -7.34,3.672 0.6,1.223 0.6,3.059 0,4.281 -1.84,2.45 -4.91,2.45 -5.52,1.836 h -1.22 l 0.61,-0.593 c 0,0 0.61,-0.633 0.61,-1.852 0,-0.613 0,-2.449 -1.83,-3.672 -0.61,-0.617 -3.06,-0.617 -3.67,-0.617 h -9.8 c 0,3.062 0,15.312 0,15.312 0,0.602 0,3.055 0.6,3.668 1.23,1.836 2.47,1.836 3.69,1.836 0.61,0 1.22,-0.613 1.22,-0.613 l 0.61,-0.613 0.62,0.613 c 0.61,1.223 0.61,3.668 -1.84,5.508 -1.83,1.23 -3.67,1.23 -4.9,0.621 1.23,4.285 -3.06,7.344 -3.06,7.344 v 0 h -0.61 v 0 c 0,0 -4.29,-3.059 -3.08,-7.344 -1.21,0.609 -3.06,0.609 -4.88,-0.621 -2.45,-1.84 -2.45,-4.285 -1.84,-5.508 l 0.61,-0.613 0.62,0.613 c 0,0 0.61,0.613 1.23,0.613 1.2,0 2.45,0 3.65,-1.836 0.61,-0.613 0.61,-3.066 0.61,-3.668 v 0 -15.312 c -1.81,0 -10.39,0 -10.39,0 -0.61,0 -3.06,0 -3.68,0.617 -1.83,1.223 -1.83,3.059 -1.83,3.672 0,1.219 0.61,1.852 0.61,1.852 l 0.61,0.593 h -0.61 c -1.23,0.614 -3.67,0.614 -5.52,-1.836 -1.22,-1.222 -1.22,-3.058 -0.61,-4.281 -4.28,0.613 -7.33,-3.058 -7.33,-3.672 v 0 0 -0.613 c 0,0 3.05,-4.293 7.33,-3.059 -0.61,-1.234 -0.61,-3.066 0.61,-4.289 1.85,-3.062 4.29,-2.445 5.52,-1.828 h 0.61 l -0.61,0.602 c 0,0 -0.61,0.617 -0.61,1.844 0,0.605 0,1.828 1.83,3.671 0.62,0.602 3.07,0.602 3.68,0.602 v 0 h 10.39 v -27.531 0 c 0,-0.617 0,-3.067 -0.61,-3.684 -1.2,-1.836 -2.45,-1.836 -3.65,-1.836 -0.62,0 -1.23,0.617 -1.23,0.617 l -0.62,0.61 -0.61,-0.61 c -0.61,-1.234 -0.61,-3.675 1.84,-5.504 1.82,-1.234 3.67,-1.234 4.88,-0.628 -1.21,-4.286 3.08,-7.344 3.08,-7.344 v 0 h 0.61 v 0 c 0,0 4.29,3.058 3.06,7.344 1.23,-0.606 3.07,-0.606 4.9,0.628 2.45,1.829 2.45,4.27 1.84,5.504 l -0.62,0.61 -0.61,-0.61 c 0,0 -0.61,-0.617 -1.22,-0.617 -1.22,0 -2.46,0 -3.69,1.836 -0.6,0.617 -0.6,3.067 -0.6,3.684 0,0 0,23.258 0,27.531 h 9.8 v 0 c 1.22,0 3.06,0 3.67,-0.602 1.83,-1.843 1.83,-3.066 1.83,-3.671 0,-1.227 -0.61,-1.844 -0.61,-1.844 l -0.61,-0.602 h 1.22 c 0.61,-0.617 3.68,-1.234 5.52,1.828 0.6,1.223 0.6,3.055 0,4.289 4.28,-1.234 7.34,3.059 7.34,3.059 l 0.61,0.613 v 0 h -0.61"
         style="fill:#7e1540;fill-opacity:1;fill-rule:evenodd;stroke:none"
         id="path78" /><path
         d="m 243.305,1386.77 c -2.633,7.37 -2.633,7.37 -6.774,7.37 -3.386,0 -6.398,-0.41 -9.785,-0.41 -5.644,-0.41 -11.664,-0.41 -17.312,-0.41 -24.082,0 -22.2,0.82 -32.739,0.82 -7.148,0 -7.902,-3.68 -7.902,-6.14 0,-1.64 0.375,-6.54 7.148,-6.54 4.895,0 9.411,0.41 14.301,0 17.313,-1.23 16.184,-15.96 15.434,-29.46 l -12.422,-192.65 c -2.633,-43.36 -14.301,-38.04 -29.731,-38.86 -3.386,0 -7.527,-1.23 -7.527,-6.54 0,-5.73 5.27,-6.14 8.277,-6.14 12.422,0 24.84,2.46 37.258,2.46 13.176,0 26.723,-2.46 39.895,-2.46 7.148,0 7.902,3.27 7.902,6.14 0,2.45 -0.754,4.09 -1.508,4.91 -0.75,0.81 -2.632,1.63 -6.394,1.63 -20.324,0.82 -34.25,-4.09 -31.992,44.58 l 8.281,182.44 c 0,3.68 2.258,4.49 3.387,1.22 l 76.394,-205.33 c 4.141,-11.04 6.024,-16.36 7.902,-21.27 0.754,-2.05 1.883,-4.5 4.52,-4.5 2.633,0 3.762,2.45 4.516,4.5 3.386,8.18 1.504,4.91 7.902,21.27 l 80.535,206.56 c 1.129,3.27 2.633,4.5 3.387,4.5 0.754,0 1.504,-2.05 1.504,-5.32 l 4.894,-191.43 c 1.129,-41.72 -16.558,-35.99 -32.742,-37.22 -3.387,-0.41 -7.527,-0.82 -7.527,-6.54 0,-2.46 1.504,-6.14 8.277,-6.14 15.434,0 30.484,2.46 45.914,2.46 15.43,0 31.238,-2.46 46.664,-2.46 7.153,0 7.906,3.27 7.906,6.14 0,5.72 -1.882,6.13 -13.171,6.95 -15.055,0.41 -20.7,5.32 -21.454,29.04 l -6.398,200.43 c -0.75,26.18 3.766,29.86 21.828,30.68 10.914,0.82 13.547,0.82 13.547,6.95 0,2.87 -0.75,6.14 -7.902,6.14 -9.032,0 -18.063,-0.82 -26.719,-0.82 -8.277,0 -16.184,0.82 -26.344,0.82 -9.781,0 -9.406,-2.46 -10.535,-5.32 l -80.535,-205.75 c -1.129,-3.27 -1.883,-4.91 -2.637,-4.91 -0.75,0 -1.504,1.64 -2.633,4.91 l -74.89,203.7"
         style="fill:#99a2a7;fill-opacity:1;fill-rule:evenodd;stroke:none"
         id="path80" /><path
         d="m 652.441,1292.7 c 0.75,6.95 -1.507,8.99 -4.14,11.45 -13.547,11.86 -38.762,17.18 -56.824,17.18 -65.86,0 -111.774,-57.67 -111.774,-119.44 0,-58.49 41.774,-102.74 99.731,-102.74 35.371,0 58.707,17.25 70.75,31.98 3.761,4.5 4.515,6.95 4.515,8.58 0,3.28 -1.508,3.69 -3.011,3.69 -1.883,0 -3.762,-1.23 -6.399,-3.69 -7.902,-6.95 -22.953,-21.26 -49.676,-21.26 -38.383,0 -82.414,30.26 -82.414,93.67 0,58.49 38.387,96.93 73.008,96.93 24.461,0 35.375,-19.63 45.16,-36.4 3.762,-6.54 7.149,-13.9 13.172,-13.9 4.891,0 5.645,5.72 6.02,11.04 l 1.882,22.91"
         style="fill:#99a2a7;fill-opacity:1;fill-rule:evenodd;stroke:none"
         id="path82" /><path
         d="m 743.195,1386.77 c -2.636,7.37 -2.636,7.37 -6.773,7.37 -3.387,0 -6.399,-0.41 -9.785,-0.41 -5.645,-0.41 -11.668,-0.41 -17.313,-0.41 -24.082,0 -22.203,0.82 -32.738,0.82 -7.148,0 -7.902,-3.68 -7.902,-6.14 0,-1.64 0.375,-6.54 7.148,-6.54 4.895,0 9.41,0.41 14.301,0 17.312,-1.23 16.183,-15.96 15.43,-29.46 l -12.418,-192.65 c -2.633,-43.36 -14.301,-38.04 -29.731,-38.86 -3.387,0 -7.527,-1.23 -7.527,-6.54 0,-5.73 5.269,-6.14 8.277,-6.14 12.422,0 24.84,2.46 37.258,2.46 13.176,0 26.723,-2.46 39.894,-2.46 7.149,0 7.903,3.27 7.903,6.14 0,2.45 -0.754,4.09 -1.508,4.91 -0.75,0.81 -2.633,1.63 -6.395,1.63 -20.324,0.82 -34.25,-4.09 -31.992,44.58 l 8.281,182.44 c 0,3.68 2.258,4.49 3.387,1.22 l 76.395,-205.33 c 4.14,-11.04 6.023,-16.36 7.902,-21.27 0.754,-2.05 1.883,-4.5 4.516,-4.5 2.636,0 3.765,2.45 4.519,4.5 3.387,8.18 1.504,4.91 7.903,21.27 l 80.535,206.56 c 1.129,3.27 2.633,4.5 3.386,4.5 0.754,0 1.504,-2.05 1.504,-5.32 l 4.895,-191.43 c 1.129,-41.72 -16.559,-35.99 -32.742,-37.22 -3.387,-0.41 -7.528,-0.82 -7.528,-6.54 0,-2.46 1.504,-6.14 8.278,-6.14 15.433,0 30.484,2.46 45.914,2.46 15.429,0 31.238,-2.46 46.664,-2.46 7.152,0 7.906,3.27 7.906,6.14 0,5.72 -1.883,6.13 -13.172,6.95 -15.054,0.41 -20.699,5.32 -21.453,29.04 l -6.398,200.43 c -0.75,26.18 3.765,29.86 21.828,30.68 10.914,0.82 13.547,0.82 13.547,6.95 0,2.87 -0.75,6.14 -7.903,6.14 -9.031,0 -18.062,-0.82 -26.718,-0.82 -8.282,0 -16.184,0.82 -26.344,0.82 -9.785,0 -9.406,-2.46 -10.535,-5.32 l -80.536,-205.75 c -1.128,-3.27 -1.882,-4.91 -2.636,-4.91 -0.75,0 -1.504,1.64 -2.633,4.91 l -74.891,203.7"
         style="fill:#99a2a7;fill-opacity:1;fill-rule:evenodd;stroke:none"
         id="path84" /><path
         d="m 1121.09,1280.02 c 0.38,11.86 -0.75,41.31 -48.54,41.31 -34.25,0 -58.71,-16.36 -69.62,-25.77 -11.293,-9.41 -23.336,-24.13 -23.336,-38.86 0,-3.27 0,-6.54 6.398,-6.54 24.088,0 28.218,17.18 30.858,24.95 3.01,9 13.55,34.77 46.29,34.77 27.47,0 25.97,-21.27 25.59,-39.27 l -1.13,-48.68 c 0,-5.32 -3.01,-7.36 -10.91,-10.63 -70.75,-28.64 -94.085,-51.13 -94.085,-76.49 0,-13.91 6.399,-35.66 33.495,-35.66 16.94,0 35,6.14 62.85,31.16 3.38,2.86 4.51,3.68 5.26,3.68 1.51,0 1.88,-2.04 2.26,-2.86 1.13,-5.32 6.02,-31.98 28.23,-31.98 10.91,0 22.2,7.78 32.36,18.07 3.76,3.68 7.15,7.77 7.15,10.63 0,2.86 -2.26,4.1 -4.51,4.1 -1.88,0 -3.39,-2.46 -5.65,-4.5 -2.26,-2.05 -7.9,-6.55 -13.55,-6.55 -12.79,0 -12.42,18.4 -12.42,25.77 0,3.68 0,7.36 0,11.04 z m -34.62,-110.85 c -0.75,-27.82 -24.84,-46.63 -47.04,-46.63 -18.06,0 -20.32,15.54 -20.32,24.94 0,26.59 31.61,43.77 56.82,53.18 6.03,2.46 7.91,2.46 8.66,2.46 3.01,0 2.63,-2.87 2.63,-5.73 l -0.75,-28.22"
         style="fill:#99a2a7;fill-opacity:1;fill-rule:evenodd;stroke:none"
         id="path86" /><path
         d="m 1304.05,1305.79 c 0,4.9 -1.5,6.13 -6.02,7.77 -13.55,4.9 -24.83,7.77 -41.77,7.77 -48.55,0 -70.37,-30.27 -70.37,-62.18 0,-41.72 41.02,-51.94 66.98,-62.17 12.8,-4.91 34.25,-14.73 34.25,-44.18 0,-28.63 -24.84,-43.35 -48.55,-43.35 -31.61,0 -41.39,20.04 -45.53,42.94 -1.51,7.78 -1.88,21.27 -8.66,21.27 -5.65,0 -6.4,-11.04 -6.4,-19.63 l -0.37,-29.04 c -0.38,-16.36 38.01,-25.84 59.46,-25.84 45.54,0 77.52,31.16 77.52,69.2 0,41.72 -28.23,53.99 -50.8,62.99 l -17.69,6.95 c -15.05,5.73 -33.87,16.37 -33.87,36.82 0,14.31 9.03,35.99 37.63,35.99 28.6,0 36.13,-21.27 39.52,-29.45 1.88,-4.5 4.51,-14.72 9.03,-14.72 6.02,0 5.64,10.22 5.64,16.77 v 22.09"
         style="fill:#99a2a7;fill-opacity:1;fill-rule:evenodd;stroke:none"
         id="path88" /><path
         d="m 1380.13,1351.19 c 0,2.45 0,6.95 -4.14,6.95 -5.26,0 -6.77,-6.14 -10.91,-14.32 -6.77,-13.49 -15.81,-22.49 -30.86,-31.49 -4.52,-2.45 -8.28,-4.09 -8.28,-8.59 0,-1.64 1.13,-4.5 5.27,-4.5 h 13.55 c 3.76,0 3.76,-4.09 3.76,-6.54 v -140.71 c 0,-23.73 6.4,-52.84 41.02,-52.84 14.3,0 25.97,4.91 37.26,15.62 9.78,9.4 10.91,13.49 10.91,15.13 0,3.27 -2.63,6.54 -8.65,1.23 -7.15,-6.14 -15.43,-12.68 -26.72,-12.68 -21.83,0 -22.21,28.63 -22.21,49.9 v 120.26 c 0,4.09 1.13,7.77 6.78,7.77 h 41.02 c 3.76,0 4.52,0.41 4.89,4.91 l 0.38,6.95 c 0.37,4.5 -2.64,4.5 -5.27,4.5 h -41.02 c -4.14,0 -6.78,3.27 -6.78,6.95 v 31.5"
         style="fill:#99a2a7;fill-opacity:1;fill-rule:evenodd;stroke:none"
         id="path90" /><path
         d="m 1628.2,1247.29 c 6.39,0 7.52,3.27 7.52,7.37 0,17.59 -15.42,66.67 -79.02,66.67 -58.34,0 -98.23,-49.08 -98.23,-111.67 0,-63.81 40.27,-110.51 94.84,-110.51 39.89,0 59.83,18.48 73.01,33.61 7.14,8.19 7.9,12.27 7.9,14.32 0,3.27 -2.63,3.68 -4.52,3.68 -3.38,0 -5.64,-4.5 -13.92,-11.87 -10.16,-8.99 -24.84,-16.35 -46.29,-16.35 -46.29,0 -77.52,38.85 -77.52,89.98 0,31.91 4.51,34.77 13.92,34.77 z m -120.05,11.05 c -3.39,0 -7.9,0.41 -7.9,6.54 0,5.73 5.27,14.32 8.27,18.82 10.92,15.13 28.61,25.35 49.3,25.35 26.35,0 42.15,-15.95 42.15,-29.44 0,-20.86 -24.83,-20.46 -47.42,-20.86 l -44.4,-0.41"
         style="fill:#99a2a7;fill-opacity:1;fill-rule:evenodd;stroke:none"
         id="path92" /><path
         d="m 1678.31,1145.85 c 0,-15.54 -1.51,-25.77 -20.32,-26.18 -4.52,0 -10.16,0 -10.16,-5.72 0,-6.14 6.77,-6.14 11.66,-6.14 12.05,0 24.46,2.05 36.51,2.05 14.68,0 29.35,-2.05 44.03,-2.05 4.89,0 11.67,0 11.67,6.14 0,2.86 -1.89,5.31 -4.52,5.31 l -5.64,0.41 c -13.18,0.82 -31.62,-0.41 -31.62,26.18 v 89.99 c 0,35.59 19.57,56.45 30.86,56.45 7.15,0 10.54,-5.73 13.55,-9.41 3.76,-4.5 7.9,-8.59 14.68,-8.59 9.78,0 18.06,7.77 18.06,18.41 0,12.27 -7.53,25.76 -25.59,25.76 -21.83,0 -33.87,-16.77 -50.43,-39.67 -0.75,-1.23 -1.5,-1.23 -3.76,-1.23 -0.75,0 -0.38,2.05 -0.38,4.5 v 24.14 c 0,9.81 2.64,17.58 -4.14,17.58 -2.63,0 -3.76,-1.23 -5.27,-2.86 -7.14,-7.77 -16.18,-19.23 -41.77,-31.09 -2.63,-1.22 -4.89,-2.45 -4.89,-5.72 0,-3.68 3.01,-4.09 4.89,-4.09 h 4.14 c 10.92,0 18.44,-0.41 18.44,-22.09 v -112.08"
         style="fill:#99a2a7;fill-opacity:1;fill-rule:evenodd;stroke:none"
         id="path94" /><path
         d="m 208.906,1021.06 c 0,27.03 8.293,23.32 19.024,24.12 1.949,0 4.875,0.53 4.875,4.24 0,3.71 -3.414,3.97 -5.121,3.97 -9.996,0 -19.754,-1.59 -29.75,-1.59 -9.996,0 -19.75,1.59 -29.746,1.59 -4.637,0 -5.122,-2.12 -5.122,-3.97 0,-3.45 1.461,-3.98 4.629,-4.24 10.973,-0.8 19.266,3.18 19.266,-24.12 v -98.333 c 0,-25.176 3.414,-60.473 62.668,-60.473 66.328,0 66.574,48.547 66.574,60.473 v 98.333 c 0,26.77 8.289,23.85 18.289,24.12 4.875,0 4.875,2.91 4.875,4.24 0,1.85 -0.488,3.97 -5.121,3.97 -7.558,0 -15.363,-1.59 -22.922,-1.59 -8.047,0 -16.094,1.59 -24.14,1.59 -2.196,0 -5.121,-0.53 -5.121,-3.97 0,-3.71 2.925,-4.24 4.878,-4.24 12.192,-0.8 20.969,2.91 20.969,-24.12 v -98.333 c 0,-11.399 -0.73,-52.743 -53.648,-52.743 -16.094,0 -45.356,3.18 -45.356,52.743 v 98.333"
         style="fill:#99a2a7;fill-opacity:1;fill-rule:evenodd;stroke:none"
         id="path96" /><path
         d="m 368.461,892.512 c 0,-16.965 -6.824,-16.43 -13.168,-16.965 l -3.656,-0.262 c -1.703,0 -2.926,-1.59 -2.926,-3.445 0,-3.977 4.391,-3.977 7.559,-3.977 7.562,0 14.878,1.063 22.433,1.063 7.563,0 14.875,-1.063 22.438,-1.063 3.168,0 7.558,0 7.558,3.977 0,1.855 -1.219,3.445 -2.929,3.445 l -3.657,0.262 c -6.34,0.535 -13.168,0 -13.168,16.965 v 68.914 c 0,19.344 22.192,31.273 36.578,31.273 32.918,0 32.188,-33.129 32.188,-41.875 v -58.312 c 0,-10.071 -0.973,-16.696 -13.168,-16.965 -2.926,0 -6.582,0 -6.582,-3.707 0,-3.977 4.387,-3.977 7.559,-3.977 7.558,0 14.875,1.063 22.437,1.063 7.555,0 14.871,-1.063 22.43,-1.063 3.172,0 7.562,0 7.562,3.977 0,3.707 -3.66,3.707 -6.586,3.707 -12.191,0.269 -13.168,6.894 -13.168,16.965 v 62.019 c 0,48.509 -33.652,51.679 -44.136,51.679 -17.071,0 -27.797,-9.538 -33.411,-14.835 -7.8,-7.422 -9.019,-9.809 -10.48,-9.809 -1.953,0 -1.953,1.856 -1.953,3.711 v 10.071 c 0,6.892 0.242,7.952 0.242,9.542 0,1.32 -0.73,1.86 -2.191,1.86 -1.465,0 -2.196,-0.54 -3.414,-1.86 -5.122,-5.566 -6.829,-10.07 -29.02,-20.144 -1.707,-0.793 -3.168,-1.59 -3.168,-3.711 0,-2.383 1.949,-2.648 3.168,-2.648 h 2.684 c 7.07,0 11.945,-0.266 11.945,-14.313 v -71.562"
         style="fill:#99a2a7;fill-opacity:1;fill-rule:evenodd;stroke:none"
         id="path98" /><path
         d="m 545.086,995.348 c 0,5.562 1.953,11.402 -2.434,11.402 -1.711,0 -2.441,-0.8 -3.66,-1.86 -6.582,-7.156 -8.535,-10.867 -29.019,-20.144 -1.703,-0.793 -3.168,-1.59 -3.168,-3.711 0,-2.383 1.949,-2.648 3.168,-2.648 h 2.683 c 7.071,0 11.949,-0.266 11.949,-14.313 v -71.562 c 0,-16.965 -6.828,-16.43 -13.167,-16.965 l -3.661,-0.262 c -1.703,0 -2.925,-1.59 -2.925,-3.445 0,-3.977 4.39,-3.977 7.562,-3.977 7.559,0 14.875,1.063 22.434,1.063 7.558,0 14.875,-1.063 22.433,-1.063 3.168,0 7.559,0 7.559,3.977 0,3.707 -3.66,3.707 -6.586,3.707 -13.41,0.535 -13.168,8.75 -13.168,16.965 z m -11.215,60.692 c -8.047,0 -12.191,-7.42 -12.191,-14.31 0,-7.42 3.656,-15.9 12.433,-15.9 7.317,0 12.196,5.3 12.196,14.84 0,9.28 -4.879,15.37 -12.438,15.37"
         style="fill:#99a2a7;fill-opacity:1;fill-rule:evenodd;stroke:none"
         id="path100" /><path
         d="m 606.613,976.797 c -3.168,8.746 -0.73,15.105 8.539,15.902 5.121,0.531 9.02,-0.265 9.02,3.973 0,3.978 -4.391,3.978 -7.559,3.978 -8.289,0 -16.336,-1.06 -24.629,-1.06 -7.558,0 -14.875,1.06 -22.433,1.06 -3.172,0 -7.602,0 -7.602,-3.978 0,-3.707 3.699,-3.707 6.625,-3.707 6.344,0 8.778,0.793 16.824,-20.406 l 36.336,-97.012 c 2.684,-7.418 2.196,-7.992 3.414,-10.641 0.489,-1.062 1.465,-2.652 3.415,-2.652 1.707,0 2.683,1.59 3.167,2.652 0.489,1.059 0.735,2.117 0.977,3.223 0.734,2.387 1.465,4.773 2.438,6.891 l 36.335,85.343 c 5.852,13.52 11.461,31.805 23.895,32.602 l 3.66,0.265 c 1.707,0 2.926,1.59 2.926,3.442 0,3.448 -3.414,3.978 -7.559,3.978 -5.363,0 -10.73,-1.06 -16.097,-1.06 -7.555,0 -14.871,1.06 -22.43,1.06 -3.172,0 -7.562,0 -7.562,-3.978 0,-3.18 2.683,-3.442 4.878,-3.707 6.829,-0.266 18.043,0.265 18.043,-9.543 0,-3.445 -1.461,-7.422 -13.652,-36.84 L 639.777,903.91 c -0.73,-1.59 -2.925,-7.156 -3.902,-7.156 -0.973,0 -1.949,3.18 -3.41,7.156 l -25.852,72.887"
         style="fill:#99a2a7;fill-opacity:1;fill-rule:evenodd;stroke:none"
         id="path102" /><path
         d="m 811.039,958.246 c 4.149,0 4.879,2.117 4.879,4.77 0,11.394 -10,43.194 -51.211,43.194 -37.797,0 -63.644,-31.8 -63.644,-72.351 0,-41.347 26.093,-71.605 61.449,-71.605 25.847,0 38.773,11.973 47.308,21.777 4.633,5.301 5.121,7.953 5.121,9.278 0,2.117 -1.707,2.382 -2.925,2.382 -2.196,0 -3.661,-2.914 -9.024,-7.683 -6.586,-5.832 -16.094,-10.602 -29.992,-10.602 -29.996,0 -50.234,25.176 -50.234,58.309 0,20.672 2.925,22.531 9.019,22.531 z m -77.789,7.156 c -2.195,0 -5.121,0.262 -5.121,4.239 0,3.711 3.418,9.277 5.367,12.191 7.07,9.809 18.531,16.43 31.942,16.43 17.07,0 27.312,-10.336 27.312,-19.082 0,-13.516 -16.094,-13.25 -30.727,-13.516 l -28.773,-0.262"
         style="fill:#99a2a7;fill-opacity:1;fill-rule:evenodd;stroke:none"
         id="path104" /><path
         d="m 846.23,892.512 c 0,-10.071 -0.972,-16.696 -13.167,-16.965 -2.926,0 -6.583,0 -6.583,-3.707 0,-3.977 4.387,-3.977 7.559,-3.977 7.801,0 15.848,1.325 23.656,1.325 9.508,0 19.02,-1.325 28.528,-1.325 3.168,0 7.558,0 7.558,3.977 0,1.855 -1.218,3.445 -2.926,3.445 l -3.66,0.262 c -8.531,0.535 -20.48,-0.262 -20.48,16.965 v 58.312 c 0,23.059 12.68,36.574 19.996,36.574 4.633,0 6.828,-3.71 8.777,-6.093 2.442,-2.918 5.121,-5.567 9.512,-5.567 6.34,0 11.703,5.032 11.703,11.926 0,7.953 -4.875,16.696 -16.578,16.696 -14.145,0 -21.949,-10.868 -32.68,-25.708 -0.488,-0.797 -0.972,-0.797 -2.437,-0.797 -0.488,0 -0.242,1.325 -0.242,2.915 v 15.64 c 0,6.36 1.707,11.39 -2.684,11.39 -1.707,0 -2.437,-0.79 -3.414,-1.85 -4.633,-5.04 -10.484,-12.458 -27.066,-20.141 -1.707,-0.797 -3.172,-1.59 -3.172,-3.711 0,-2.387 1.953,-2.653 3.172,-2.653 h 2.683 c 7.07,0 11.945,-0.265 11.945,-14.312 v -72.621"
         style="fill:#99a2a7;fill-opacity:1;fill-rule:evenodd;stroke:none"
         id="path106" /><path
         d="m 1002.61,996.145 c 0,3.179 -0.97,3.975 -3.899,5.035 -8.777,3.18 -16.094,5.03 -27.066,5.03 -31.457,0 -45.598,-19.608 -45.598,-40.28 0,-27.035 26.578,-33.66 43.402,-40.285 8.293,-3.18 22.192,-9.543 22.192,-28.629 0,-18.551 -16.094,-28.09 -31.457,-28.09 -20.481,0 -26.821,12.984 -29.504,27.828 -0.977,5.035 -1.219,13.781 -5.61,13.781 -3.656,0 -4.144,-7.156 -4.144,-12.722 l -0.246,-18.817 c -0.242,-10.601 24.629,-16.742 38.527,-16.742 29.508,0 50.233,20.187 50.233,44.836 0,27.035 -18.284,34.984 -32.917,40.816 l -11.46,4.508 c -9.754,3.707 -21.95,10.602 -21.95,23.852 0,9.277 5.852,23.324 24.387,23.324 18.535,0 23.41,-13.781 25.605,-19.082 1.219,-2.918 2.926,-9.543 5.852,-9.543 3.903,0 3.653,6.625 3.653,10.867 v 14.313"
         style="fill:#99a2a7;fill-opacity:1;fill-rule:evenodd;stroke:none"
         id="path108" /><path
         d="m 1060.24,995.348 c 0,5.562 1.95,11.402 -2.44,11.402 -1.71,0 -2.44,-0.8 -3.66,-1.86 -6.58,-7.156 -8.53,-10.867 -29.01,-20.144 -1.71,-0.793 -3.17,-1.59 -3.17,-3.711 0,-2.383 1.95,-2.648 3.17,-2.648 h 2.68 c 7.07,0 11.95,-0.266 11.95,-14.313 v -71.562 c 0,-16.965 -6.83,-16.43 -13.17,-16.965 l -3.66,-0.262 c -1.7,0 -2.93,-1.59 -2.93,-3.445 0,-3.977 4.39,-3.977 7.57,-3.977 7.56,0 14.87,1.063 22.43,1.063 7.56,0 14.88,-1.063 22.43,-1.063 3.17,0 7.56,0 7.56,3.977 0,3.707 -3.66,3.707 -6.58,3.707 -13.41,0.535 -13.17,8.75 -13.17,16.965 z m -11.22,60.692 c -8.04,0 -12.19,-7.42 -12.19,-14.31 0,-7.42 3.66,-15.9 12.44,-15.9 7.31,0 12.19,5.3 12.19,14.84 0,9.28 -4.88,15.37 -12.44,15.37"
         style="fill:#99a2a7;fill-opacity:1;fill-rule:evenodd;stroke:none"
         id="path110" /><path
         d="m 1126.89,1025.56 c 0,1.59 0,4.51 -2.68,4.51 -3.42,0 -4.39,-3.98 -7.07,-9.28 -4.39,-8.74 -10.25,-14.58 -20,-20.4 -2.93,-1.593 -5.37,-2.656 -5.37,-5.57 0,-1.062 0.73,-2.918 3.42,-2.918 h 8.78 c 2.44,0 2.44,-2.648 2.44,-4.238 v -91.176 c 0,-15.375 4.14,-34.234 26.57,-34.234 9.27,0 16.83,3.18 24.15,10.113 6.33,6.098 7.07,8.746 7.07,9.809 0,2.121 -1.71,4.242 -5.61,0.797 -4.64,-3.977 -10,-8.219 -17.31,-8.219 -14.15,0 -14.39,18.555 -14.39,32.336 v 77.922 c 0,2.652 0.73,5.039 4.39,5.039 h 26.58 c 2.44,0 2.93,0.262 3.17,3.179 l 0.24,4.504 c 0.25,2.916 -1.7,2.916 -3.41,2.916 h -26.58 c -2.69,0 -4.39,2.12 -4.39,4.51 v 20.4"
         style="fill:#99a2a7;fill-opacity:1;fill-rule:evenodd;stroke:none"
         id="path112" /><path
         d="m 1205.73,976 c -3.18,8.484 -5.37,15.375 7.31,16.699 5.12,0.531 9.03,-0.265 9.03,3.973 0,3.978 -4.39,3.978 -7.56,3.978 -7.81,0 -15.61,-1.06 -23.41,-1.06 -7.56,0 -15.12,1.06 -22.44,1.06 -3.94,0 -6.62,-0.26 -6.62,-3.978 0,-3.973 4.14,-3.707 6.38,-3.707 9.26,0 9.51,-3.18 13.41,-12.988 l 41.21,-103.895 c 3.17,-7.953 3.42,-10.117 3.42,-11.441 0,-1.325 -0.74,-3.184 -2.69,-8.746 l -5.61,-15.375 c -5.12,-14.047 -6.82,-16.961 -12.92,-16.961 -2.19,0 -4.15,0.261 -6.1,0.261 -7.8,0 -12.19,-2.648 -12.19,-12.187 0,-7.953 3.66,-11.133 15.12,-11.133 13.41,0 13.17,4.238 15.61,14.844 4.87,20.937 14.14,44.258 18.53,55.433 l 38.77,95.68 c 7.32,17.762 8.29,25.711 18.05,26.508 l 2.92,0.265 c 1.95,0.262 2.93,1.852 2.93,3.711 0,3.709 -2.93,3.709 -6.34,3.709 -4.15,0 -8.29,-1.06 -12.44,-1.06 -7.56,0 -14.87,1.06 -22.43,1.06 -3.17,0 -7.56,0 -7.56,-3.978 0,-3.707 3.66,-3.707 6.58,-3.707 9.51,-0.266 13.66,-3.977 13.66,-11.93 0,-4.769 -1.71,-10.601 -5.85,-20.937 l -23.9,-61.223 c -1.47,-3.449 -1.95,-5.566 -2.44,-5.566 -0.49,0 -0.98,2.117 -2.44,5.566 L 1205.73,976"
         style="fill:#99a2a7;fill-opacity:1;fill-rule:evenodd;stroke:none"
         id="path114" /></g></g></svg>
